<?xml version="1.0" encoding="UTF-8" standalone="no"?>
<svg
   xmlns:dc="http://purl.org/dc/elements/1.1/"
   xmlns:cc="http://creativecommons.org/ns#"
   xmlns:rdf="http://www.w3.org/1999/02/22-rdf-syntax-ns#"
   xmlns:svg="http://www.w3.org/2000/svg"
   xmlns="http://www.w3.org/2000/svg"
   xmlns:sodipodi="http://sodipodi.sourceforge.net/DTD/sodipodi-0.dtd"
   xmlns:inkscape="http://www.inkscape.org/namespaces/inkscape"
   viewBox="0 0 700 700"
   version="1.1"
   id="svg8"
   sodipodi:docname="huntington-bank-logo.svg"
   width="700"
   height="700"
   inkscape:version="0.92.4 (5da689c313, 2019-01-14)"
   inkscape:export-filename="C:\Users\suitedoalex\sites\huntington-bank-logo-0.png"
   inkscape:export-xdpi="561.73712"
   inkscape:export-ydpi="561.73712">
  <metadata
     id="metadata14">
    <rdf:RDF>
      <cc:Work
         rdf:about="">
        <dc:format>image/svg+xml</dc:format>
        <dc:type
           rdf:resource="http://purl.org/dc/dcmitype/StillImage" />
        <dc:title>Huntington Logo</dc:title>
      </cc:Work>
    </rdf:RDF>
  </metadata>
  <defs
     id="defs12" />
  <sodipodi:namedview
     pagecolor="#ffffff"
     bordercolor="#666666"
     borderopacity="1"
     objecttolerance="10"
     gridtolerance="10"
     guidetolerance="10"
     inkscape:pageopacity="0"
     inkscape:pageshadow="2"
     inkscape:window-width="1600"
     inkscape:window-height="837"
     id="namedview10"
     showgrid="false"
     inkscape:zoom="0.46127669"
     inkscape:cx="461.54156"
     inkscape:cy="28.733804"
     inkscape:window-x="-8"
     inkscape:window-y="-8"
     inkscape:window-maximized="1"
     inkscape:current-layer="svg8" />
  <title
     id="title2">Huntington Logo</title>
  <path
     d="m 468.33622,844.91258 v 52.04045 a 1.472761,1.472761 0 0 1 -1.51129,1.50532 h -18.78449 a 1.472761,1.472761 0 0 1 -1.51129,-1.50532 v -47.63248 a 4.5517756,4.5517756 0 0 0 -4.53386,-4.51542 h -4.96582 v 52.14898 a 1.472761,1.472761 0 0 1 -1.51129,1.50532 h -18.6765 a 1.472761,1.472761 0 0 1 -1.51129,-1.50532 h 0.21706 v -65.26654 a 2.3914729,2.3914729 0 0 1 2.37519,-2.36542 h 34.76129 a 15.633298,15.633298 0 0 1 15.65229,15.59043 z m 154.69959,0.96755 v 36.01915 c 0,10.75159 -5.61375,14.40745 -15.32995,16.55744 a 65.359873,65.359873 0 0 1 -11.11897,1.07554 55.706071,55.706071 0 0 1 -11.12059,-1.07554 c -9.7135,-2.14999 -15.32833,-5.80639 -15.32833,-16.55744 v -36.1266 c 0,-10.75159 5.61266,-14.40744 15.32833,-16.55798 a 65.443984,65.443984 0 0 1 11.12059,-1.07499 55.747855,55.747855 0 0 1 11.11897,1.07499 c 9.6055,2.25798 15.22088,5.80639 15.32995,16.66543 z m -21.05115,3.44096 a 4.5528609,4.5528609 0 0 0 -4.53441,-4.51596 H 595.615 a 4.5534036,4.5534036 0 0 0 -4.53495,4.51596 v 29.03195 a 4.5534036,4.5534036 0 0 0 4.53495,4.51542 h 1.83525 a 4.5523183,4.5523183 0 0 0 4.53441,-4.51542 z M 563.33581,829.2147 h -8.20437 v -12.6856 a 1.472761,1.472761 0 0 0 -1.51184,-1.50532 h -17.81205 a 1.4716757,1.4716757 0 0 0 -1.5102,1.50532 v 66.23029 a 15.632213,15.632213 0 0 0 15.65283,15.58988 h 13.38563 a 1.4722183,1.4722183 0 0 0 1.51129,-1.50532 V 884.4796 a 1.4722183,1.4722183 0 0 0 -1.51129,-1.50532 h -3.66942 a 4.5534036,4.5534036 0 0 1 -4.53495,-4.51596 v -30.5351 h 8.20437 a 1.4722183,1.4722183 0 0 0 1.51129,-1.50586 v -15.69734 a 1.4722183,1.4722183 0 0 0 -1.51129,-1.50532 z m -35.83953,1.50532 v 79.34894 c 0,10.75158 -5.61484,14.40853 -15.33104,16.55906 a 65.517785,65.517785 0 0 1 -11.11788,1.075 55.822199,55.822199 0 0 1 -11.1206,-1.075 c -9.71349,-2.15053 -15.32832,-5.80639 -15.32832,-16.55906 v -5.4808 a 1.4722183,1.4722183 0 0 1 1.5102,-1.50641 h 18.67596 a 1.472761,1.472761 0 0 1 1.51183,1.50641 v 2.90156 a 3.6357769,3.6357769 0 0 0 3.67105,3.65586 h 2.15921 a 3.632521,3.632521 0 0 0 3.66943,-3.65586 v -9.14045 h -15.43741 a 15.632755,15.632755 0 0 1 -15.65337,-15.58988 v -37.95426 a 15.633298,15.633298 0 0 1 15.65337,-15.59043 h 35.62411 a 1.5416779,1.5416779 0 0 1 1.51346,1.50532 z m -21.70016,14.08511 h -4.96582 a 4.5523183,4.5523183 0 0 0 -4.53387,4.51542 v 29.13777 a 4.5528609,4.5528609 0 0 0 4.53387,4.51596 h 4.96582 z m 161.1767,-15.48298 h -34.76129 a 2.3914729,2.3914729 0 0 0 -2.37519,2.36542 v 65.26274 h -0.21706 a 1.472761,1.472761 0 0 0 1.51129,1.50532 h 18.6765 a 1.472761,1.472761 0 0 0 1.51129,-1.50532 v -52.14518 h 4.96582 a 4.5517756,4.5517756 0 0 1 4.53386,4.51542 v 47.62976 a 1.4733036,1.4733036 0 0 0 1.51184,1.50532 h 18.78394 a 1.472761,1.472761 0 0 0 1.51129,-1.50532 v -52.04045 a 15.633298,15.633298 0 0 0 -15.65229,-15.58771 z m -260.49528,-0.10853 h -19.21589 a 1.4733036,1.4733036 0 0 0 -1.51129,1.50532 v 66.23137 a 1.4733036,1.4733036 0 0 0 1.51129,1.50532 h 19.10899 a 1.4722183,1.4722183 0 0 0 1.5102,-1.50532 h 0.10854 v -66.23029 a 1.4738463,1.4738463 0 0 0 -1.51184,-1.50532 z m -29.039,0 h -8.20546 V 816.5291 a 1.4722183,1.4722183 0 0 0 -1.5102,-1.50532 h -17.81314 a 1.472761,1.472761 0 0 0 -1.51129,1.50532 v 66.23029 a 15.632755,15.632755 0 0 0 15.65663,15.58988 h 13.38617 a 1.4716757,1.4716757 0 0 0 1.51021,-1.50532 V 884.4796 a 1.5405926,1.5405926 0 0 0 -1.51021,-1.50532 h -3.67267 a 4.5534036,4.5534036 0 0 1 -4.53496,-4.51596 v -30.5351 h 8.20546 a 1.4716757,1.4716757 0 0 0 1.51021,-1.50586 v -15.69734 a 1.4716757,1.4716757 0 0 0 -1.51075,-1.50532 z m -51.1722,0.10853 h -34.7602 a 2.3909303,2.3909303 0 0 0 -2.37519,2.36542 v 65.26274 h -0.21707 a 1.472761,1.472761 0 0 0 1.51129,1.50532 h 18.6765 a 1.472761,1.472761 0 0 0 1.51129,-1.50532 v -52.14518 h 4.96582 a 4.5523183,4.5523183 0 0 1 4.53441,4.51542 v 47.62976 a 1.472761,1.472761 0 0 0 1.51129,1.50532 h 18.78394 a 1.472761,1.472761 0 0 0 1.51129,-1.50532 v -52.04045 a 15.633298,15.633298 0 0 0 -15.65229,-15.58771 z m -46.52872,-0.10853 h -18.67487 a 1.4722183,1.4722183 0 0 0 -1.51129,1.50478 v 52.14898 h -4.96636 a 4.5517756,4.5517756 0 0 1 -4.53387,-4.51542 v -47.63194 a 1.472761,1.472761 0 0 0 -1.51129,-1.50477 H 229.756 a 1.4722183,1.4722183 0 0 0 -1.51129,1.50477 v 52.04045 a 15.632213,15.632213 0 0 0 15.65283,15.58935 h 34.76182 a 2.3909303,2.3909303 0 0 0 2.3752,-2.36434 v -65.26546 h 0.21706 a 1.4722183,1.4722183 0 0 0 -1.51292,-1.50477 z M 219.3924,802.6578 h -20.62082 a 1.472761,1.472761 0 0 0 -1.51129,1.50532 v 34.40421 h -16.62201 v -34.40421 a 1.472761,1.472761 0 0 0 -1.51129,-1.50532 h -20.62083 a 1.472761,1.472761 0 0 0 -1.51129,1.50532 v 92.89572 a 1.472761,1.472761 0 0 0 1.51129,1.50532 h 20.62083 a 1.472761,1.472761 0 0 0 1.51129,-1.50532 V 859.42801 H 197.263 v 37.63083 a 1.472761,1.472761 0 0 0 1.51129,1.50532 h 20.62083 a 1.472761,1.472761 0 0 0 1.50803,-1.50532 v -92.89572 a 1.472761,1.472761 0 0 0 -1.51075,-1.50532 z"
     id="path4"
     inkscape:connector-curvature="0"
     style="fill:#766d65;stroke-width:5.42653275"
     inkscape:export-filename="C:\Users\suitedoalex\sites\huntington-bank-logo-4.png"
     inkscape:export-xdpi="101.01451"
     inkscape:export-ydpi="101.01451" />
  <path
     d="m 133.68086,831.87099 v 62.54459 a 4.8437231,4.8437231 0 0 1 -2.26992,3.56523 l -12.53854,7.23737 v -84.14924 l 12.53854,7.23573 a 4.7243393,4.7243393 0 0 1 2.26992,3.56632 z m -55.45103,96.78764 14.808466,-8.53377 V 879.50835 L 78.22983,888.04212 Z M 98.551106,852.82718 58.01491,876.2698 v 43.85723 l 14.700478,8.53377 v -43.5349 l 25.834098,-14.90723 v 46.66818 l 14.807924,-8.42578 v -90.6334 L 98.551106,809.40189 Z M 72.717015,797.6274 58.017081,806.16117 v 40.61651 l 14.699934,-8.53377 z m 20.321821,8.53702 -14.809006,-8.53431 v 43.53328 L 52.396279,856.0679 v -46.66818 l -14.700477,8.53648 v 90.5227 l 14.700477,8.42524 V 873.4594 l 40.644727,-23.44263 z m -75.664314,25.70603 v 62.54513 a 4.7210834,4.7210834 0 0 0 2.269919,3.56469 l 12.538546,7.23737 v -84.14925 l -12.538546,7.23628 a 4.8415525,4.8415525 0 0 0 -2.269919,3.56578 z"
     id="path6"
     inkscape:connector-curvature="0"
     style="fill:#5ba63c;stroke-width:5.42653275"
     inkscape:export-filename="C:\Users\suitedoalex\sites\huntington-bank-logo-4.png"
     inkscape:export-xdpi="101.01451"
     inkscape:export-ydpi="101.01451" />
  <path
     inkscape:connector-curvature="0"
     style="fill:#766d65;fill-opacity:1;stroke-width:5.46222544"
     d="m 398.84538,454.98652 v 52.38273 a 1.4824481,1.4824481 0 0 1 -1.52119,1.51517 h -18.90808 a 1.4824481,1.4824481 0 0 1 -1.52118,-1.51517 v -47.9458 a 4.5817151,4.5817151 0 0 0 -4.5637,-4.54505 h -4.99852 v 52.49194 a 1.4824481,1.4824481 0 0 1 -1.52125,1.51517 h -18.79928 a 1.4824481,1.4824481 0 0 1 -1.52125,-1.51517 h 0.21849 v -65.69585 a 2.4072032,2.4072032 0 0 1 2.39083,-2.38088 h 34.98988 a 15.736127,15.736127 0 0 1 15.75525,15.69291 z m 155.71716,0.97397 v 36.25598 c 0,10.82242 -5.65069,14.50223 -15.43082,16.66641 a 65.789783,65.789783 0 0 1 -11.19208,1.08255 56.072484,56.072484 0 0 1 -11.19372,-1.08255 c -9.77741,-2.16418 -15.42915,-5.84461 -15.42915,-16.66641 v -36.36425 c 0,-10.82227 5.64954,-14.50208 15.42915,-16.66688 a 65.874446,65.874446 0 0 1 11.19372,-1.08209 56.114539,56.114539 0 0 1 11.19208,1.08209 c 9.66874,2.27291 15.32101,5.84461 15.43082,16.77515 z m -21.18962,3.46358 a 4.5828074,4.5828074 0 0 0 -4.56425,-4.54567 h -1.84729 a 4.5833537,4.5833537 0 0 0 -4.56483,4.54567 v 29.22287 a 4.5833537,4.5833537 0 0 0 4.56483,4.5452 h 1.84729 a 4.5822614,4.5822614 0 0 0 4.56425,-4.5452 z m -38.90304,-20.23873 h -8.25837 v -12.76897 a 1.4824481,1.4824481 0 0 0 -1.52174,-1.51517 H 466.7605 a 1.4813557,1.4813557 0 0 0 -1.5201,1.51517 v 66.66595 a 15.735033,15.735033 0 0 0 15.75577,15.69244 h 13.47371 a 1.4819019,1.4819019 0 0 0 1.52119,-1.51532 v -12.44572 a 1.4819019,1.4819019 0 0 0 -1.52119,-1.51517 h -3.69359 a 4.5833537,4.5833537 0 0 1 -4.56478,-4.54566 v -30.73588 h 8.25837 a 1.4819019,1.4819019 0 0 0 1.52119,-1.51579 v -15.80055 a 1.4819019,1.4819019 0 0 0 -1.52119,-1.51533 z m -36.07527,1.51533 v 79.8708 c 0,10.82227 -5.65179,14.50332 -15.43189,16.66796 a 65.948732,65.948732 0 0 1 -11.19103,1.08208 56.18937,56.18937 0 0 1 -11.19376,-1.08208 c -9.77737,-2.16464 -15.42911,-5.84461 -15.42911,-16.66796 v -5.51686 a 1.4819019,1.4819019 0 0 1 1.52012,-1.51625 h 18.79882 a 1.4824481,1.4824481 0 0 1 1.52176,1.51625 v 2.92068 a 3.6596914,3.6596914 0 0 0 3.69518,3.67981 h 2.17343 a 3.6564141,3.6564141 0 0 0 3.69351,-3.67981 v -9.20053 H 421.01275 A 15.735581,15.735581 0 0 1 405.25641,493.08232 V 454.8784 a 15.736127,15.736127 0 0 1 15.75634,-15.69306 h 35.85843 a 1.5518183,1.5518183 0 0 1 1.52343,1.51533 z m -21.84297,14.17773 h -4.99844 a 4.5822614,4.5822614 0 0 0 -4.56368,4.54505 v 29.32944 a 4.5828074,4.5828074 0 0 0 4.56368,4.54566 h 4.99844 z M 598.78851,439.29361 H 563.7986 a 2.4072032,2.4072032 0 0 0 -2.39078,2.38088 v 65.69198 h -0.21849 a 1.4824481,1.4824481 0 0 0 1.5212,1.51532 h 18.79934 a 1.4824481,1.4824481 0 0 0 1.52125,-1.51532 V 454.8784 h 4.99846 a 4.5817151,4.5817151 0 0 1 4.56368,4.54505 v 47.94302 a 1.4829943,1.4829943 0 0 0 1.52182,1.51532 h 18.90746 a 1.4824481,1.4824481 0 0 0 1.52125,-1.51532 V 454.98373 A 15.736127,15.736127 0 0 0 598.78851,439.29361 Z M 336.57982,439.1838 h -19.34227 a 1.4829943,1.4829943 0 0 0 -1.5212,1.51517 V 507.366 a 1.4829943,1.4829943 0 0 0 1.5212,1.51518 h 19.23467 a 1.4819019,1.4819019 0 0 0 1.52018,-1.51518 h 0.1092 v -66.66595 a 1.4835405,1.4835405 0 0 0 -1.52182,-1.51533 z m -29.23,0 h -8.25938 v -12.76805 a 1.4819019,1.4819019 0 0 0 -1.52018,-1.51517 h -17.93027 a 1.4824481,1.4824481 0 0 0 -1.52125,1.51517 v 66.66595 a 15.735581,15.735581 0 0 0 15.75961,15.69244 h 13.4742 a 1.4813557,1.4813557 0 0 0 1.52018,-1.51532 v -12.44556 a 1.550726,1.550726 0 0 0 -1.52018,-1.51533 h -3.69684 a 4.5833537,4.5833537 0 0 1 -4.56477,-4.54566 v -30.73588 h 8.25944 a 1.4813557,1.4813557 0 0 0 1.52012,-1.51579 v -15.80055 a 1.4813557,1.4813557 0 0 0 -1.52068,-1.51533 z m -51.50876,0.10981 h -34.98887 a 2.4066567,2.4066567 0 0 0 -2.39077,2.38088 v 65.69198 h -0.21849 a 1.4824481,1.4824481 0 0 0 1.52121,1.51532 h 18.79934 a 1.4824481,1.4824481 0 0 0 1.52123,-1.51532 V 454.8784 h 4.99846 a 4.5822614,4.5822614 0 0 1 4.56427,4.54505 v 47.94302 a 1.4824481,1.4824481 0 0 0 1.52125,1.51532 h 18.90744 a 1.4824481,1.4824481 0 0 0 1.52125,-1.51532 V 454.98373 A 15.736127,15.736127 0 0 0 255.84213,439.29361 Z M 209.0063,439.1838 h -18.7977 a 1.4819019,1.4819019 0 0 0 -1.52125,1.5147 v 52.49194 h -4.99903 a 4.5817151,4.5817151 0 0 1 -4.56368,-4.54505 V 440.7002 a 1.4824481,1.4824481 0 0 0 -1.52125,-1.5147 h -18.90746 a 1.4819019,1.4819019 0 0 0 -1.52125,1.5147 v 52.38274 a 15.735033,15.735033 0 0 0 15.75576,15.69182 h 34.99051 a 2.4066567,2.4066567 0 0 0 2.39077,-2.37979 V 440.7002 h 0.21851 a 1.4819019,1.4819019 0 0 0 -1.52285,-1.5147 z M 148.26414,412.45332 H 127.5077 a 1.4824481,1.4824481 0 0 0 -1.52123,1.51517 v 34.63052 h -16.73138 v -34.63052 a 1.4824481,1.4824481 0 0 0 -1.52119,-1.51517 H 86.977398 a 1.4824481,1.4824481 0 0 0 -1.52119,1.51517 v 93.50687 a 1.4824481,1.4824481 0 0 0 1.52119,1.51517 H 107.7339 a 1.4824481,1.4824481 0 0 0 1.52119,-1.51517 v -37.87834 h 16.7341 v 37.87834 a 1.4824481,1.4824481 0 0 0 1.52125,1.51517 h 20.75643 a 1.4824481,1.4824481 0 0 0 1.51797,-1.51517 v -93.50687 a 1.4824481,1.4824481 0 0 0 -1.5207,-1.51517 z"
     id="path4-2"
     inkscape:export-filename="C:\Users\suitedoalex\sites\huntington-bank-logo-5.png"
     inkscape:export-xdpi="127.01092"
     inkscape:export-ydpi="127.01092" />
  <path
     inkscape:connector-curvature="0"
     style="fill:#5ba63c;stroke-width:8.73005104"
     d="m 434.60801,216.76818 v 100.6201 a 7.7924446,7.7924446 0 0 1 -3.65175,5.73556 l -20.17164,11.64327 V 199.39012 l 20.17164,11.6408 a 7.6003834,7.6003834 0 0 1 3.65175,5.73726 z m -89.20804,155.70929 23.82346,-13.72887 v -65.34274 l -23.82346,13.72888 z m 32.69237,-121.99551 -65.21352,37.71377 V 358.752 l 23.64968,13.72887 v -70.03765 l 41.56119,-23.98226 v 75.07843 l 23.82258,-13.55518 v -145.8084 l -23.81993,-13.55518 z m -41.56121,-88.8039 -23.64886,13.72887 v 65.34274 l 23.64886,-13.72888 z m 32.69321,13.73413 -23.82437,-13.72964 v 70.03502 l -41.5603,23.97793 v -75.07843 l -23.64968,13.73321 v 145.63053 l 23.64968,13.55409 v -69.8604 l 65.38812,-37.71392 z M 247.4977,216.76741 v 100.62087 a 7.5951454,7.5951454 0 0 0 3.65175,5.73479 l 20.1717,11.64311 V 199.38935 l -20.1717,11.64157 a 7.7889525,7.7889525 0 0 0 -3.65175,5.73649 z"
     id="path6-2"
     inkscape:export-filename="C:\Users\suitedoalex\sites\huntington-bank-logo-5.png"
     inkscape:export-xdpi="127.01092"
     inkscape:export-ydpi="127.01092" />
</svg>
